<?xml version="1.0" encoding="UTF-8"?>
<svg width="152px" height="66px" viewBox="0 0 152 66" version="1.1" xmlns="http://www.w3.org/2000/svg" xmlns:xlink="http://www.w3.org/1999/xlink">
    <!-- Generator: Sketch 50.2 (55047) - http://www.bohemiancoding.com/sketch -->
    <title>logo/shorelineaviation-color</title>
    <desc>Created with Sketch.</desc>
    <defs></defs>
    <g id="Symbols" stroke="none" stroke-width="1" fill="none" fill-rule="evenodd">
        <g id="layout/header" transform="translate(-310.000000, -79.000000)">
            <g id="Group-9">
                <g transform="translate(155.000000, 79.000000)">
                    <g id="logo/shorelineaviation-color" transform="translate(155.000000, 0.000000)">
                        <g>
                            <path d="M95.1622565,6.78909231 C94.7917277,4.28201538 91.32391,2.32416923 85.9304511,1.13616923 C87.0887003,2.11416923 87.7960316,3.20293846 87.9623538,4.38770769 C88.8720438,10.8640154 73.4318006,17.7234 53.47591,19.7094 C51.270755,19.9290923 49.1057945,20.0758615 46.9921167,20.1617077 C52.1203842,20.6043231 58.1209191,20.5466308 64.4748888,19.8820154 C82.2168462,18.0261692 95.956445,12.1641692 95.1622565,6.78909231" id="Fill-3" fill="#0091DA"></path>
                            <path d="M38.8791976,62.0118923 L36.8020182,57.3042 L34.6615441,61.9888154 L38.8791976,62.0118923 Z M36.3326201,56.0880462 L37.3111489,56.0935846 L41.4784438,65.4166615 L40.354383,65.4106615 L39.2839149,62.9645077 L34.2462006,62.9372769 L33.135076,65.3714308 L32.0646079,65.3658923 L36.3326201,56.0880462 Z" id="Fill-5" fill="#0091DA"></path>
                            <polygon id="Fill-7" fill="#0091DA" points="45.5351805 56.2043538 46.6989739 56.2103538 49.9478006 64.1825077 53.2964207 56.2458923 54.4200195 56.2523538 50.3899404 65.5311231 49.4645422 65.5255846"></polygon>
                            <polygon id="Fill-9" fill="#0091DA" points="59.3128024 56.2787077 60.3573982 56.2842462 60.3070395 65.5187077 59.2629058 65.5131692"></polygon>
                            <path d="M72.014135,62.1912923 L69.9374176,57.4836 L67.7964815,62.1682154 L72.014135,62.1912923 Z M69.4680195,56.2669846 L70.4460863,56.2725231 L74.6133812,65.5960615 L73.4897824,65.5896 L72.4183903,63.1434462 L67.381138,63.1166769 L66.2704754,65.5503692 L65.1995453,65.5452923 L69.4680195,56.2669846 Z" id="Fill-11" fill="#0091DA"></path>
                            <polygon id="Fill-13" fill="#0091DA" points="81.9044377 57.3636 78.7969848 57.3469846 78.8025289 56.3837538 86.0740426 56.4234462 86.0694225 57.3862154 82.9624316 57.3696 82.917155 65.6408308 81.8596231 65.6348308"></polygon>
                            <polygon id="Fill-15" fill="#0091DA" points="91.0989593 56.4504462 92.144017 56.4564462 92.0931964 65.6909077 91.0490626 65.6849077"></polygon>
                            <path d="M105.750512,61.1730923 L105.750512,61.1467846 C105.7616,59.0495538 104.237442,57.3261692 102.121916,57.3150923 C100.005928,57.3035538 98.4900863,58.9840154 98.4785362,61.0812462 L98.4785362,61.1075538 C98.466986,63.2052462 99.9916061,64.9286308 102.107132,64.9397077 C104.222658,64.9517077 105.739424,63.2712462 105.750512,61.1730923 M97.3942079,61.1283231 L97.3942079,61.1020154 C97.4080681,58.5561692 99.3369435,56.3366308 102.153795,56.3518615 C104.970184,56.3675538 106.8487,58.5806308 106.835302,61.1264769 L106.83484,61.1532462 C106.82098,63.6995538 104.891643,65.9172462 102.075253,65.9024769 C99.2588644,65.8877077 97.3803477,63.6746308 97.3942079,61.1283231" id="Fill-17" fill="#0091DA"></path>
                            <polygon id="Fill-19" fill="#0091DA" points="112.043081 56.5635692 113.02161 56.5691077 118.811932 64.0008 118.852126 56.6004923 119.870388 56.6060308 119.820029 65.8404923 118.987032 65.8358769 113.052102 58.2311077 113.010984 65.8035692 111.992722 65.7980308"></polygon>
                            <path d="M109.201143,10.7353846 C109.323112,6.73476923 105.244985,2.96123077 98.4530334,0 C99.7369483,1.76723077 100.401313,3.61661538 100.332936,5.50523077 C99.9564012,15.8298462 78.0268207,23.4152308 51.3510517,22.4483077 C48.4034529,22.3412308 45.526079,22.1293846 42.7309422,21.8316923 C49.3551854,23.5721538 57.2453252,24.7075385 65.7462371,24.9650769 C89.4845714,25.6836923 108.940571,19.3130769 109.201143,10.7353846" id="Fill-1" fill="#003C71"></path>
                            <path d="M15.5736243,32.7289846 C15.9025726,32.7312923 16.0554967,32.8845231 16.0536486,33.2131385 L16.0425605,35.2932923 C16.0407125,35.6219077 15.8864024,35.7746769 15.5569921,35.7723692 L4.56263343,35.7132923 C3.72917447,35.7082154 3.3974541,36.1665231 3.39329605,36.9326769 L3.38867599,37.6771385 C3.38451793,38.4871385 3.75550881,38.9052923 4.52336292,38.9094462 L12.7526152,38.9537538 C15.2765544,38.9671385 16.5854176,40.3323692 16.5729435,42.7402154 L16.5632413,44.4922154 C16.5516912,46.6157538 15.3149009,48.0543692 12.65929,48.0400615 L0.502062006,47.9740615 C0.173113678,47.9726769 -0.00152462006,47.8180615 0.000323404255,47.4899077 L0.0114115502,45.4102154 C0.0132595745,45.0811385 0.189745897,44.9292923 0.519156231,44.9311385 L12.0397398,44.9934462 C12.8736608,44.9980615 13.2049191,44.5397538 13.2095392,43.7736 L13.2141593,42.8759077 C13.2183173,42.0659077 12.8477884,41.6472923 12.0799343,41.6431385 L3.85068207,41.5988308 C1.32674286,41.5849846 0.0178796353,40.2206769 0.0308158055,37.8123692 L0.039593921,36.2145231 C0.0511440729,34.0900615 1.28793435,32.6519077 3.94308328,32.6662154 L15.5736243,32.7289846 Z" id="Fill-21" fill="#003C71"></path>
                            <path d="M20.9279514,32.7580615 C21.2568997,32.7599077 21.4098237,32.9136 21.4084377,33.2422154 L21.3774833,38.9343692 L31.6474164,38.9902154 L31.6783708,33.2976 C31.6797568,32.9694462 31.8345289,32.8166769 32.1634772,32.8189846 L34.5335684,32.8319077 C34.8629787,32.8337538 35.037617,32.9874462 35.035769,33.3156 L34.95769,47.6791385 C34.9558419,48.0072923 34.7793556,48.1600615 34.4504073,48.1582154 L32.0803161,48.1452923 C31.7513678,48.1429846 31.5984438,47.9892923 31.6002918,47.6611385 L31.6317082,41.8365231 L21.3617751,41.7811385 L21.3303587,47.6052923 C21.3285106,47.9329846 21.1742006,48.0862154 20.8447903,48.0843692 L18.4746991,48.0714462 C18.1457508,48.0696 17.9706505,47.9149846 17.9724985,47.5868308 L18.0505775,33.2242154 C18.0524255,32.8956 18.2284498,32.7437538 18.5578602,32.7451385 L20.9279514,32.7580615 Z" id="Fill-23" fill="#003C71"></path>
                            <path d="M39.9908766,42.1666615 C39.9784024,44.4651231 40.6335271,45.1477385 42.8936608,45.1602 L49.4111805,45.1952769 C51.6717763,45.2077385 52.333831,44.5320462 52.3463052,42.2335846 L52.3638614,38.9488154 C52.3763356,36.6498923 51.722135,35.9682 49.4615392,35.9557385 L42.9440195,35.9206615 C40.6838857,35.9082 40.021369,36.5829692 40.0088948,38.8823538 L39.9908766,42.1666615 Z M49.6093812,32.9132769 C54.0640438,32.9372769 55.7457459,34.5222 55.7226456,38.7263538 L55.7023173,42.4925077 C55.679679,46.6962 53.9808827,48.2635846 49.5262201,48.2391231 L42.7453568,48.2026615 C38.3124085,48.1786615 36.6094541,46.5932769 36.6320924,42.3891231 L36.6524207,38.6229692 C36.675521,34.4192769 38.3955696,32.8523538 42.8285179,32.8763538 L49.6093812,32.9132769 Z" id="Fill-25" fill="#003C71"></path>
                            <path d="M60.7148523,40.7897077 L69.1196669,40.8354 C70.6119465,40.8432462 71.1640438,40.2109385 71.1709739,38.8974 L71.1765179,37.9775538 C71.183448,36.6644769 70.6382809,36.0266308 69.1460012,36.0183231 L61.0267064,35.9744769 C60.8289678,35.9730923 60.7407246,36.0603231 60.7398006,36.2357077 L60.7148523,40.7897077 Z M69.8427064,33.0224769 C73.1996426,33.0404769 74.5523964,34.6023231 74.5362261,37.5580154 L74.529296,38.8060154 C74.5158979,41.3020154 73.5424511,42.7637077 71.2356547,43.1670923 L74.9631198,47.8295538 C75.0943295,47.9837077 75.0698432,48.3774 74.674828,48.3760154 L71.8441167,48.3598615 C71.4708158,48.3580154 71.3617824,48.2698615 71.2310347,48.0718615 L67.7886274,43.4989385 L60.7000681,43.4606308 L60.6765058,47.8184769 C60.6751198,48.1461692 60.5208097,48.2989385 60.1913994,48.2975538 L57.8213082,48.2841692 C57.4918979,48.2823231 57.3172596,48.1281692 57.3191076,47.8000154 L57.3962626,33.6118615 C57.3985726,33.1738615 57.6189495,32.9564769 58.0583173,32.9592462 L69.8427064,33.0224769 Z" id="Fill-27" fill="#003C71"></path>
                            <path d="M91.7870249,33.1414154 C92.1164353,33.1428 92.2910736,33.2969538 92.2892255,33.6255692 L92.2776754,35.7052615 C92.2762894,36.0338769 92.100265,36.1866462 91.7708547,36.1848 L82.1809945,36.1321846 C79.8991465,36.1201846 79.2588061,36.7954154 79.2458699,39.0948 L79.2454079,39.3131077 L91.643341,39.3809538 C91.9727514,39.3818769 92.1252134,39.5364923 92.1238274,39.8651077 L92.1141252,41.5944923 C92.1122772,41.9231077 91.9579672,42.0749538 91.6290188,42.0735692 L79.2301617,42.0061846 L79.2278517,42.3791077 C79.2158395,44.6775692 79.8483258,45.3597231 82.1306359,45.3721846 L91.720496,45.4243385 C92.0494444,45.4257231 92.2245447,45.5798769 92.2226967,45.9084923 L92.2111465,47.9886462 C92.2092985,48.3168 92.0332742,48.4691077 91.7038638,48.4677231 L82.0483988,48.4155692 C77.6154505,48.3911077 75.912496,46.8052615 75.9351343,42.6015692 L75.9559246,38.8354154 C75.9785629,34.6317231 77.6986116,33.0648 82.1315599,33.0892615 L91.7870249,33.1414154 Z" id="Fill-29" fill="#003C71"></path>
                            <path d="M96.5708669,33.1673077 C96.9002772,33.1686923 97.0527392,33.3223846 97.0508912,33.651 L97.0037666,42.387 C96.9908304,44.7080769 97.645493,45.3906923 99.9060888,45.4026923 L108.793238,45.4506923 C109.122648,45.453 109.275572,45.6062308 109.273724,45.9348462 L109.262174,48.0805385 C109.260326,48.4086923 109.106016,48.5614615 108.776605,48.5596154 L99.7573228,48.5111538 C95.3248365,48.4871538 93.6214201,46.9013077 93.6440584,42.6976154 L93.693031,33.633 C93.694879,33.3043846 93.8713653,33.1525385 94.2007757,33.1543846 L96.5708669,33.1673077 Z" id="Fill-31" fill="#003C71"></path>
                            <path d="M113.095253,33.2565692 C113.424664,33.2579538 113.577126,33.4121077 113.575278,33.7407231 L113.497199,48.1038 C113.495351,48.4319538 113.341041,48.5842615 113.012092,48.5828769 L110.642001,48.5699538 C110.313515,48.5676462 110.138415,48.4139538 110.140263,48.0858 L110.21788,33.7227231 C110.219728,33.3941077 110.396214,33.2418 110.725162,33.2436462 L113.095253,33.2565692 Z" id="Fill-33" fill="#003C71"></path>
                            <path d="M119.327346,33.2901231 C120.731844,33.2979692 121.038154,33.4738154 121.866069,34.5958154 L129.971504,45.3242769 C130.037109,45.4341231 130.124428,45.4784308 130.2561,45.4788923 L130.453376,45.4798154 C130.562872,45.4807385 130.629401,45.4152 130.630325,45.2624308 L130.692233,33.8333538 C130.694081,33.5047385 130.848391,33.3528923 131.17734,33.3542769 L133.482288,33.3667385 C133.811236,33.3685846 133.963698,33.5222769 133.96185,33.8508923 L133.893474,46.4181231 C133.884233,48.1918154 133.244817,48.6916615 131.906847,48.6847385 L130.019553,48.6750462 C128.680197,48.6672 128.352173,48.5342769 127.480367,47.3693538 L119.35368,36.6399692 C119.265899,36.5305846 119.200294,36.4862769 119.068622,36.4848923 L118.871346,36.4839692 C118.739674,36.4835077 118.695322,36.5490462 118.69486,36.7027385 L118.632489,48.1318154 C118.630641,48.4599692 118.476331,48.6122769 118.14692,48.6099692 L115.842896,48.5979692 C115.513486,48.5961231 115.338847,48.4419692 115.340695,48.1138154 L115.409072,35.5456615 C115.418312,33.7724308 116.057729,33.2725846 117.39616,33.2799692 L119.327346,33.2901231 Z" id="Fill-35" fill="#003C71"></path>
                            <path d="M151.432749,33.4636615 C151.761697,33.4655077 151.936798,33.6192 151.93495,33.9482769 L151.923399,36.0279692 C151.922013,36.3565846 151.745527,36.5088923 151.416579,36.5075077 L141.826257,36.4553538 C139.544409,36.4428923 138.904068,37.1181231 138.891132,39.4170462 L138.89067,39.6358154 L151.289065,39.7032 C151.618475,39.7041231 151.770937,39.8587385 151.769551,40.1873538 L151.759849,41.9167385 C151.758001,42.2453538 151.603691,42.3972 151.274281,42.3962769 L138.875424,42.3288923 L138.873576,42.7013538 C138.861102,45.0002769 139.49405,45.6828923 141.77636,45.6948923 L151.36622,45.7465846 C151.695168,45.7479692 151.869807,45.9021231 151.867959,46.2307385 L151.856871,48.3108923 C151.855022,48.6390462 151.678536,48.7918154 151.349588,48.7899692 L141.694123,48.7378154 C137.260712,48.7142769 135.55822,47.1279692 135.580396,42.9247385 L135.600725,39.1585846 C135.623825,34.9544308 137.343874,33.3879692 141.777284,33.4119692 L151.432749,33.4636615 Z" id="Fill-37" fill="#003C71"></path>
                        </g>
                    </g>
                </g>
            </g>
        </g>
    </g>
</svg>